<mxfile host="app.diagrams.net" modified="2023-11-06T03:00:46.080Z" agent="Mozilla/5.0 (Windows NT 10.0; Win64; x64) AppleWebKit/537.36 (KHTML, like Gecko) Chrome/119.0.0.0 Safari/537.36" etag="KFUvzSPj9lCq2V1OtsMK" version="22.0.8" type="google">
  <diagram name="Page-1" id="1-wRTp9wkmaMOlyzvMKr">
    <mxGraphModel grid="1" page="1" gridSize="10" guides="1" tooltips="1" connect="1" arrows="1" fold="1" pageScale="1" pageWidth="850" pageHeight="1100" math="0" shadow="0">
      <root>
        <mxCell id="0" />
        <mxCell id="1" parent="0" />
        <mxCell id="TFKw6VhQxi5iw2Is0Utw-9" style="edgeStyle=orthogonalEdgeStyle;rounded=0;orthogonalLoop=1;jettySize=auto;html=1;exitX=1;exitY=0.5;exitDx=0;exitDy=0;endArrow=none;endFill=0;" edge="1" parent="1" source="TFKw6VhQxi5iw2Is0Utw-5" target="TFKw6VhQxi5iw2Is0Utw-8">
          <mxGeometry relative="1" as="geometry" />
        </mxCell>
        <mxCell id="TFKw6VhQxi5iw2Is0Utw-12" value="m" style="edgeLabel;html=1;align=center;verticalAlign=middle;resizable=0;points=[];" vertex="1" connectable="0" parent="TFKw6VhQxi5iw2Is0Utw-9">
          <mxGeometry x="-0.48" y="1" relative="1" as="geometry">
            <mxPoint as="offset" />
          </mxGeometry>
        </mxCell>
        <mxCell id="TFKw6VhQxi5iw2Is0Utw-23" style="rounded=0;orthogonalLoop=1;jettySize=auto;html=1;entryX=0.5;entryY=1;entryDx=0;entryDy=0;" edge="1" parent="1" source="TFKw6VhQxi5iw2Is0Utw-5" target="TFKw6VhQxi5iw2Is0Utw-22">
          <mxGeometry relative="1" as="geometry" />
        </mxCell>
        <mxCell id="TFKw6VhQxi5iw2Is0Utw-29" style="rounded=0;orthogonalLoop=1;jettySize=auto;html=1;entryX=0.5;entryY=1;entryDx=0;entryDy=0;" edge="1" parent="1" source="TFKw6VhQxi5iw2Is0Utw-5" target="TFKw6VhQxi5iw2Is0Utw-24">
          <mxGeometry relative="1" as="geometry" />
        </mxCell>
        <mxCell id="TFKw6VhQxi5iw2Is0Utw-30" style="rounded=0;orthogonalLoop=1;jettySize=auto;html=1;entryX=0.5;entryY=1;entryDx=0;entryDy=0;" edge="1" parent="1" source="TFKw6VhQxi5iw2Is0Utw-5" target="TFKw6VhQxi5iw2Is0Utw-25">
          <mxGeometry relative="1" as="geometry" />
        </mxCell>
        <mxCell id="TFKw6VhQxi5iw2Is0Utw-31" style="rounded=0;orthogonalLoop=1;jettySize=auto;html=1;" edge="1" parent="1" source="TFKw6VhQxi5iw2Is0Utw-5" target="TFKw6VhQxi5iw2Is0Utw-26">
          <mxGeometry relative="1" as="geometry" />
        </mxCell>
        <mxCell id="TFKw6VhQxi5iw2Is0Utw-32" style="rounded=0;orthogonalLoop=1;jettySize=auto;html=1;entryX=1;entryY=0.5;entryDx=0;entryDy=0;" edge="1" parent="1" source="TFKw6VhQxi5iw2Is0Utw-5" target="TFKw6VhQxi5iw2Is0Utw-27">
          <mxGeometry relative="1" as="geometry" />
        </mxCell>
        <mxCell id="TFKw6VhQxi5iw2Is0Utw-33" style="rounded=0;orthogonalLoop=1;jettySize=auto;html=1;" edge="1" parent="1" source="TFKw6VhQxi5iw2Is0Utw-5" target="TFKw6VhQxi5iw2Is0Utw-28">
          <mxGeometry relative="1" as="geometry" />
        </mxCell>
        <mxCell id="TFKw6VhQxi5iw2Is0Utw-5" value="Siswa" style="rounded=0;whiteSpace=wrap;html=1;" vertex="1" parent="1">
          <mxGeometry x="630" y="120" width="120" height="60" as="geometry" />
        </mxCell>
        <mxCell id="TFKw6VhQxi5iw2Is0Utw-11" value="n" style="edgeStyle=orthogonalEdgeStyle;rounded=0;orthogonalLoop=1;jettySize=auto;html=1;endArrow=none;endFill=0;" edge="1" parent="1" source="TFKw6VhQxi5iw2Is0Utw-6" target="TFKw6VhQxi5iw2Is0Utw-8">
          <mxGeometry relative="1" as="geometry" />
        </mxCell>
        <mxCell id="TFKw6VhQxi5iw2Is0Utw-38" style="rounded=0;orthogonalLoop=1;jettySize=auto;html=1;" edge="1" parent="1" source="TFKw6VhQxi5iw2Is0Utw-6" target="TFKw6VhQxi5iw2Is0Utw-34">
          <mxGeometry relative="1" as="geometry" />
        </mxCell>
        <mxCell id="TFKw6VhQxi5iw2Is0Utw-40" style="rounded=0;orthogonalLoop=1;jettySize=auto;html=1;entryX=0.5;entryY=1;entryDx=0;entryDy=0;" edge="1" parent="1" source="TFKw6VhQxi5iw2Is0Utw-6" target="TFKw6VhQxi5iw2Is0Utw-36">
          <mxGeometry relative="1" as="geometry" />
        </mxCell>
        <mxCell id="TFKw6VhQxi5iw2Is0Utw-41" style="rounded=0;orthogonalLoop=1;jettySize=auto;html=1;" edge="1" parent="1" source="TFKw6VhQxi5iw2Is0Utw-6" target="TFKw6VhQxi5iw2Is0Utw-37">
          <mxGeometry relative="1" as="geometry" />
        </mxCell>
        <mxCell id="TFKw6VhQxi5iw2Is0Utw-6" value="Buku" style="rounded=0;whiteSpace=wrap;html=1;" vertex="1" parent="1">
          <mxGeometry x="1000" y="120" width="120" height="60" as="geometry" />
        </mxCell>
        <mxCell id="TFKw6VhQxi5iw2Is0Utw-15" style="edgeStyle=orthogonalEdgeStyle;rounded=0;orthogonalLoop=1;jettySize=auto;html=1;entryX=0.5;entryY=1;entryDx=0;entryDy=0;" edge="1" parent="1" source="TFKw6VhQxi5iw2Is0Utw-7" target="TFKw6VhQxi5iw2Is0Utw-14">
          <mxGeometry relative="1" as="geometry" />
        </mxCell>
        <mxCell id="TFKw6VhQxi5iw2Is0Utw-17" value="1" style="edgeLabel;html=1;align=center;verticalAlign=middle;resizable=0;points=[];" vertex="1" connectable="0" parent="TFKw6VhQxi5iw2Is0Utw-15">
          <mxGeometry x="-0.4952" y="-2" relative="1" as="geometry">
            <mxPoint x="-2" y="-15" as="offset" />
          </mxGeometry>
        </mxCell>
        <mxCell id="TFKw6VhQxi5iw2Is0Utw-47" style="rounded=0;orthogonalLoop=1;jettySize=auto;html=1;" edge="1" parent="1" source="TFKw6VhQxi5iw2Is0Utw-7" target="TFKw6VhQxi5iw2Is0Utw-42">
          <mxGeometry relative="1" as="geometry" />
        </mxCell>
        <mxCell id="TFKw6VhQxi5iw2Is0Utw-48" style="rounded=0;orthogonalLoop=1;jettySize=auto;html=1;" edge="1" parent="1" source="TFKw6VhQxi5iw2Is0Utw-7" target="TFKw6VhQxi5iw2Is0Utw-43">
          <mxGeometry relative="1" as="geometry" />
        </mxCell>
        <mxCell id="TFKw6VhQxi5iw2Is0Utw-49" style="rounded=0;orthogonalLoop=1;jettySize=auto;html=1;" edge="1" parent="1" source="TFKw6VhQxi5iw2Is0Utw-7" target="TFKw6VhQxi5iw2Is0Utw-44">
          <mxGeometry relative="1" as="geometry" />
        </mxCell>
        <mxCell id="TFKw6VhQxi5iw2Is0Utw-50" style="rounded=0;orthogonalLoop=1;jettySize=auto;html=1;" edge="1" parent="1" source="TFKw6VhQxi5iw2Is0Utw-7" target="TFKw6VhQxi5iw2Is0Utw-45">
          <mxGeometry relative="1" as="geometry" />
        </mxCell>
        <mxCell id="TFKw6VhQxi5iw2Is0Utw-51" style="rounded=0;orthogonalLoop=1;jettySize=auto;html=1;" edge="1" parent="1" source="TFKw6VhQxi5iw2Is0Utw-7" target="TFKw6VhQxi5iw2Is0Utw-46">
          <mxGeometry relative="1" as="geometry" />
        </mxCell>
        <mxCell id="TFKw6VhQxi5iw2Is0Utw-7" value="Penjaga" style="rounded=0;whiteSpace=wrap;html=1;" vertex="1" parent="1">
          <mxGeometry x="1000" y="410" width="120" height="60" as="geometry" />
        </mxCell>
        <mxCell id="TFKw6VhQxi5iw2Is0Utw-63" style="rounded=0;orthogonalLoop=1;jettySize=auto;html=1;entryX=0.5;entryY=1;entryDx=0;entryDy=0;" edge="1" parent="1" source="TFKw6VhQxi5iw2Is0Utw-8" target="TFKw6VhQxi5iw2Is0Utw-59">
          <mxGeometry relative="1" as="geometry" />
        </mxCell>
        <mxCell id="TFKw6VhQxi5iw2Is0Utw-64" style="rounded=0;orthogonalLoop=1;jettySize=auto;html=1;entryX=0.5;entryY=1;entryDx=0;entryDy=0;" edge="1" parent="1" source="TFKw6VhQxi5iw2Is0Utw-8" target="TFKw6VhQxi5iw2Is0Utw-60">
          <mxGeometry relative="1" as="geometry" />
        </mxCell>
        <mxCell id="TFKw6VhQxi5iw2Is0Utw-65" style="rounded=0;orthogonalLoop=1;jettySize=auto;html=1;" edge="1" parent="1" source="TFKw6VhQxi5iw2Is0Utw-8" target="TFKw6VhQxi5iw2Is0Utw-62">
          <mxGeometry relative="1" as="geometry" />
        </mxCell>
        <mxCell id="TFKw6VhQxi5iw2Is0Utw-8" value="Meminjam" style="rhombus;whiteSpace=wrap;html=1;" vertex="1" parent="1">
          <mxGeometry x="830" y="110" width="80" height="80" as="geometry" />
        </mxCell>
        <mxCell id="TFKw6VhQxi5iw2Is0Utw-16" value="m" style="edgeStyle=orthogonalEdgeStyle;rounded=0;orthogonalLoop=1;jettySize=auto;html=1;entryX=0.5;entryY=1;entryDx=0;entryDy=0;" edge="1" parent="1" source="TFKw6VhQxi5iw2Is0Utw-14" target="TFKw6VhQxi5iw2Is0Utw-6">
          <mxGeometry relative="1" as="geometry" />
        </mxCell>
        <mxCell id="TFKw6VhQxi5iw2Is0Utw-14" value="Mengelola" style="rhombus;whiteSpace=wrap;html=1;" vertex="1" parent="1">
          <mxGeometry x="1020" y="270" width="80" height="80" as="geometry" />
        </mxCell>
        <mxCell id="TFKw6VhQxi5iw2Is0Utw-20" value="1" style="edgeStyle=orthogonalEdgeStyle;rounded=0;orthogonalLoop=1;jettySize=auto;html=1;entryX=1;entryY=0.5;entryDx=0;entryDy=0;endArrow=none;endFill=0;" edge="1" parent="1" source="TFKw6VhQxi5iw2Is0Utw-18" target="TFKw6VhQxi5iw2Is0Utw-19">
          <mxGeometry relative="1" as="geometry" />
        </mxCell>
        <mxCell id="TFKw6VhQxi5iw2Is0Utw-58" style="rounded=0;orthogonalLoop=1;jettySize=auto;html=1;entryX=0.5;entryY=1;entryDx=0;entryDy=0;" edge="1" parent="1" source="TFKw6VhQxi5iw2Is0Utw-18" target="TFKw6VhQxi5iw2Is0Utw-52">
          <mxGeometry relative="1" as="geometry" />
        </mxCell>
        <mxCell id="TFKw6VhQxi5iw2Is0Utw-18" value="Kategori" style="rounded=0;whiteSpace=wrap;html=1;" vertex="1" parent="1">
          <mxGeometry x="1320" y="120" width="120" height="60" as="geometry" />
        </mxCell>
        <mxCell id="TFKw6VhQxi5iw2Is0Utw-21" value="m" style="edgeStyle=orthogonalEdgeStyle;rounded=0;orthogonalLoop=1;jettySize=auto;html=1;exitX=0;exitY=0.5;exitDx=0;exitDy=0;endArrow=none;endFill=0;" edge="1" parent="1" source="TFKw6VhQxi5iw2Is0Utw-19" target="TFKw6VhQxi5iw2Is0Utw-6">
          <mxGeometry relative="1" as="geometry" />
        </mxCell>
        <mxCell id="TFKw6VhQxi5iw2Is0Utw-19" value="memilki" style="rhombus;whiteSpace=wrap;html=1;" vertex="1" parent="1">
          <mxGeometry x="1180" y="110" width="80" height="80" as="geometry" />
        </mxCell>
        <mxCell id="TFKw6VhQxi5iw2Is0Utw-22" value="&lt;u&gt;NIS&lt;/u&gt;" style="ellipse;whiteSpace=wrap;html=1;" vertex="1" parent="1">
          <mxGeometry x="490" y="-20" width="40" height="30" as="geometry" />
        </mxCell>
        <mxCell id="TFKw6VhQxi5iw2Is0Utw-24" value="nama" style="ellipse;whiteSpace=wrap;html=1;aspect=fixed;" vertex="1" parent="1">
          <mxGeometry x="470" y="50" width="40" height="40" as="geometry" />
        </mxCell>
        <mxCell id="TFKw6VhQxi5iw2Is0Utw-25" value="kelas" style="ellipse;whiteSpace=wrap;html=1;aspect=fixed;" vertex="1" parent="1">
          <mxGeometry x="450" y="120" width="50" height="50" as="geometry" />
        </mxCell>
        <mxCell id="TFKw6VhQxi5iw2Is0Utw-26" value="jenis_kelamin" style="ellipse;whiteSpace=wrap;html=1;aspect=fixed;" vertex="1" parent="1">
          <mxGeometry x="580" y="270" width="90" height="90" as="geometry" />
        </mxCell>
        <mxCell id="TFKw6VhQxi5iw2Is0Utw-27" value="alamat" style="ellipse;whiteSpace=wrap;html=1;aspect=fixed;" vertex="1" parent="1">
          <mxGeometry x="445" y="180" width="80" height="80" as="geometry" />
        </mxCell>
        <mxCell id="TFKw6VhQxi5iw2Is0Utw-28" value="no_telp" style="ellipse;whiteSpace=wrap;html=1;aspect=fixed;" vertex="1" parent="1">
          <mxGeometry x="510" y="240" width="80" height="80" as="geometry" />
        </mxCell>
        <mxCell id="TFKw6VhQxi5iw2Is0Utw-34" value="&lt;u&gt;kode_buku&lt;/u&gt;" style="ellipse;whiteSpace=wrap;html=1;aspect=fixed;" vertex="1" parent="1">
          <mxGeometry x="980" y="-195" width="80" height="80" as="geometry" />
        </mxCell>
        <mxCell id="TFKw6VhQxi5iw2Is0Utw-35" value="nama" style="ellipse;whiteSpace=wrap;html=1;aspect=fixed;" vertex="1" parent="1">
          <mxGeometry x="1070" y="-195" width="80" height="80" as="geometry" />
        </mxCell>
        <mxCell id="TFKw6VhQxi5iw2Is0Utw-36" value="Penerbit" style="ellipse;whiteSpace=wrap;html=1;aspect=fixed;" vertex="1" parent="1">
          <mxGeometry x="1160" y="-200" width="80" height="80" as="geometry" />
        </mxCell>
        <mxCell id="TFKw6VhQxi5iw2Is0Utw-37" value="Penulis" style="ellipse;whiteSpace=wrap;html=1;aspect=fixed;" vertex="1" parent="1">
          <mxGeometry x="1265" y="-200" width="80" height="80" as="geometry" />
        </mxCell>
        <mxCell id="TFKw6VhQxi5iw2Is0Utw-39" style="rounded=0;orthogonalLoop=1;jettySize=auto;html=1;entryX=0.604;entryY=1.004;entryDx=0;entryDy=0;entryPerimeter=0;" edge="1" parent="1" source="TFKw6VhQxi5iw2Is0Utw-6" target="TFKw6VhQxi5iw2Is0Utw-35">
          <mxGeometry relative="1" as="geometry" />
        </mxCell>
        <mxCell id="TFKw6VhQxi5iw2Is0Utw-42" value="&lt;u&gt;id&lt;/u&gt;" style="ellipse;whiteSpace=wrap;html=1;" vertex="1" parent="1">
          <mxGeometry x="835" y="510" width="70" height="40" as="geometry" />
        </mxCell>
        <mxCell id="TFKw6VhQxi5iw2Is0Utw-43" value="nama" style="ellipse;whiteSpace=wrap;html=1;" vertex="1" parent="1">
          <mxGeometry x="910" y="520" width="70" height="40" as="geometry" />
        </mxCell>
        <mxCell id="TFKw6VhQxi5iw2Is0Utw-44" value="jenis_kelamin" style="ellipse;whiteSpace=wrap;html=1;" vertex="1" parent="1">
          <mxGeometry x="1000" y="520" width="70" height="40" as="geometry" />
        </mxCell>
        <mxCell id="TFKw6VhQxi5iw2Is0Utw-45" value="alamat" style="ellipse;whiteSpace=wrap;html=1;" vertex="1" parent="1">
          <mxGeometry x="1080" y="510" width="70" height="40" as="geometry" />
        </mxCell>
        <mxCell id="TFKw6VhQxi5iw2Is0Utw-46" value="no_telp" style="ellipse;whiteSpace=wrap;html=1;" vertex="1" parent="1">
          <mxGeometry x="1165" y="510" width="70" height="40" as="geometry" />
        </mxCell>
        <mxCell id="TFKw6VhQxi5iw2Is0Utw-52" value="&lt;u&gt;kode_kategori&lt;/u&gt;" style="ellipse;whiteSpace=wrap;html=1;aspect=fixed;" vertex="1" parent="1">
          <mxGeometry x="1490" y="50" width="80" height="80" as="geometry" />
        </mxCell>
        <mxCell id="TFKw6VhQxi5iw2Is0Utw-56" value="nama" style="ellipse;whiteSpace=wrap;html=1;" vertex="1" parent="1">
          <mxGeometry x="1500" y="150" width="70" height="40" as="geometry" />
        </mxCell>
        <mxCell id="TFKw6VhQxi5iw2Is0Utw-57" style="rounded=0;orthogonalLoop=1;jettySize=auto;html=1;entryX=0.429;entryY=1.092;entryDx=0;entryDy=0;entryPerimeter=0;" edge="1" parent="1" source="TFKw6VhQxi5iw2Is0Utw-18" target="TFKw6VhQxi5iw2Is0Utw-56">
          <mxGeometry relative="1" as="geometry" />
        </mxCell>
        <mxCell id="TFKw6VhQxi5iw2Is0Utw-59" value="tanggal_peminjaman" style="ellipse;whiteSpace=wrap;html=1;" vertex="1" parent="1">
          <mxGeometry x="670" y="-45" width="120" height="50" as="geometry" />
        </mxCell>
        <mxCell id="TFKw6VhQxi5iw2Is0Utw-60" value="tanggal_pengembalian" style="ellipse;whiteSpace=wrap;html=1;" vertex="1" parent="1">
          <mxGeometry x="800" y="-50" width="125" height="60" as="geometry" />
        </mxCell>
        <mxCell id="TFKw6VhQxi5iw2Is0Utw-62" value="denda" style="ellipse;whiteSpace=wrap;html=1;" vertex="1" parent="1">
          <mxGeometry x="925" y="10" width="85" height="40" as="geometry" />
        </mxCell>
        <mxCell id="TFKw6VhQxi5iw2Is0Utw-66" style="edgeStyle=orthogonalEdgeStyle;rounded=0;orthogonalLoop=1;jettySize=auto;html=1;exitX=0.5;exitY=1;exitDx=0;exitDy=0;" edge="1" parent="1" source="TFKw6VhQxi5iw2Is0Utw-6" target="TFKw6VhQxi5iw2Is0Utw-6">
          <mxGeometry relative="1" as="geometry" />
        </mxCell>
        <mxCell id="TFKw6VhQxi5iw2Is0Utw-67" value="Siswa" style="swimlane;fontStyle=0;childLayout=stackLayout;horizontal=1;startSize=26;fillColor=none;horizontalStack=0;resizeParent=1;resizeParentMax=0;resizeLast=0;collapsible=1;marginBottom=0;whiteSpace=wrap;html=1;" vertex="1" parent="1">
          <mxGeometry x="400" y="-610" width="265" height="182" as="geometry" />
        </mxCell>
        <mxCell id="TFKw6VhQxi5iw2Is0Utw-68" value="+ &lt;u&gt;NIS&lt;/u&gt;&amp;nbsp;char(8)" style="text;strokeColor=none;fillColor=none;align=left;verticalAlign=top;spacingLeft=4;spacingRight=4;overflow=hidden;rotatable=0;points=[[0,0.5],[1,0.5]];portConstraint=eastwest;whiteSpace=wrap;html=1;" vertex="1" parent="TFKw6VhQxi5iw2Is0Utw-67">
          <mxGeometry y="26" width="265" height="26" as="geometry" />
        </mxCell>
        <mxCell id="TFKw6VhQxi5iw2Is0Utw-69" value="+ nama varchar" style="text;strokeColor=none;fillColor=none;align=left;verticalAlign=top;spacingLeft=4;spacingRight=4;overflow=hidden;rotatable=0;points=[[0,0.5],[1,0.5]];portConstraint=eastwest;whiteSpace=wrap;html=1;" vertex="1" parent="TFKw6VhQxi5iw2Is0Utw-67">
          <mxGeometry y="52" width="265" height="26" as="geometry" />
        </mxCell>
        <mxCell id="TFKw6VhQxi5iw2Is0Utw-70" value="+ kelas varchar" style="text;strokeColor=none;fillColor=none;align=left;verticalAlign=top;spacingLeft=4;spacingRight=4;overflow=hidden;rotatable=0;points=[[0,0.5],[1,0.5]];portConstraint=eastwest;whiteSpace=wrap;html=1;" vertex="1" parent="TFKw6VhQxi5iw2Is0Utw-67">
          <mxGeometry y="78" width="265" height="26" as="geometry" />
        </mxCell>
        <mxCell id="TFKw6VhQxi5iw2Is0Utw-71" value="+ alamat varchar" style="text;strokeColor=none;fillColor=none;align=left;verticalAlign=top;spacingLeft=4;spacingRight=4;overflow=hidden;rotatable=0;points=[[0,0.5],[1,0.5]];portConstraint=eastwest;whiteSpace=wrap;html=1;" vertex="1" parent="TFKw6VhQxi5iw2Is0Utw-67">
          <mxGeometry y="104" width="265" height="26" as="geometry" />
        </mxCell>
        <mxCell id="TFKw6VhQxi5iw2Is0Utw-72" value="+ no_telp varchar" style="text;strokeColor=none;fillColor=none;align=left;verticalAlign=top;spacingLeft=4;spacingRight=4;overflow=hidden;rotatable=0;points=[[0,0.5],[1,0.5]];portConstraint=eastwest;whiteSpace=wrap;html=1;" vertex="1" parent="TFKw6VhQxi5iw2Is0Utw-67">
          <mxGeometry y="130" width="265" height="26" as="geometry" />
        </mxCell>
        <mxCell id="TFKw6VhQxi5iw2Is0Utw-73" value="+ jenis_kelamin enum(&#39;laki-laki&#39;, &#39;peerempuan&#39;)" style="text;strokeColor=none;fillColor=none;align=left;verticalAlign=top;spacingLeft=4;spacingRight=4;overflow=hidden;rotatable=0;points=[[0,0.5],[1,0.5]];portConstraint=eastwest;whiteSpace=wrap;html=1;" vertex="1" parent="TFKw6VhQxi5iw2Is0Utw-67">
          <mxGeometry y="156" width="265" height="26" as="geometry" />
        </mxCell>
        <mxCell id="TFKw6VhQxi5iw2Is0Utw-75" value="Buku" style="swimlane;fontStyle=0;childLayout=stackLayout;horizontal=1;startSize=26;fillColor=none;horizontalStack=0;resizeParent=1;resizeParentMax=0;resizeLast=0;collapsible=1;marginBottom=0;whiteSpace=wrap;html=1;" vertex="1" parent="1">
          <mxGeometry x="1080" y="-610" width="180" height="208" as="geometry" />
        </mxCell>
        <mxCell id="TFKw6VhQxi5iw2Is0Utw-76" value="PR&amp;nbsp;&lt;u&gt;kode_buku&lt;/u&gt;&amp;nbsp;char(8)" style="text;strokeColor=none;fillColor=none;align=left;verticalAlign=top;spacingLeft=4;spacingRight=4;overflow=hidden;rotatable=0;points=[[0,0.5],[1,0.5]];portConstraint=eastwest;whiteSpace=wrap;html=1;" vertex="1" parent="TFKw6VhQxi5iw2Is0Utw-75">
          <mxGeometry y="26" width="180" height="26" as="geometry" />
        </mxCell>
        <mxCell id="TFKw6VhQxi5iw2Is0Utw-102" value="FK id_kategori char(8)" style="text;strokeColor=none;fillColor=none;align=left;verticalAlign=top;spacingLeft=4;spacingRight=4;overflow=hidden;rotatable=0;points=[[0,0.5],[1,0.5]];portConstraint=eastwest;whiteSpace=wrap;html=1;" vertex="1" parent="TFKw6VhQxi5iw2Is0Utw-75">
          <mxGeometry y="52" width="180" height="26" as="geometry" />
        </mxCell>
        <mxCell id="TFKw6VhQxi5iw2Is0Utw-106" value="FK penjaga_id char(8)" style="text;strokeColor=none;fillColor=none;align=left;verticalAlign=top;spacingLeft=4;spacingRight=4;overflow=hidden;rotatable=0;points=[[0,0.5],[1,0.5]];portConstraint=eastwest;whiteSpace=wrap;html=1;" vertex="1" parent="TFKw6VhQxi5iw2Is0Utw-75">
          <mxGeometry y="78" width="180" height="26" as="geometry" />
        </mxCell>
        <mxCell id="TFKw6VhQxi5iw2Is0Utw-77" value="+ nama varchar" style="text;strokeColor=none;fillColor=none;align=left;verticalAlign=top;spacingLeft=4;spacingRight=4;overflow=hidden;rotatable=0;points=[[0,0.5],[1,0.5]];portConstraint=eastwest;whiteSpace=wrap;html=1;" vertex="1" parent="TFKw6VhQxi5iw2Is0Utw-75">
          <mxGeometry y="104" width="180" height="26" as="geometry" />
        </mxCell>
        <mxCell id="TFKw6VhQxi5iw2Is0Utw-78" value="+ penerbit varchar" style="text;strokeColor=none;fillColor=none;align=left;verticalAlign=top;spacingLeft=4;spacingRight=4;overflow=hidden;rotatable=0;points=[[0,0.5],[1,0.5]];portConstraint=eastwest;whiteSpace=wrap;html=1;" vertex="1" parent="TFKw6VhQxi5iw2Is0Utw-75">
          <mxGeometry y="130" width="180" height="26" as="geometry" />
        </mxCell>
        <mxCell id="TFKw6VhQxi5iw2Is0Utw-79" value="+ penulis varchar" style="text;strokeColor=none;fillColor=none;align=left;verticalAlign=top;spacingLeft=4;spacingRight=4;overflow=hidden;rotatable=0;points=[[0,0.5],[1,0.5]];portConstraint=eastwest;whiteSpace=wrap;html=1;" vertex="1" parent="TFKw6VhQxi5iw2Is0Utw-75">
          <mxGeometry y="156" width="180" height="26" as="geometry" />
        </mxCell>
        <mxCell id="TFKw6VhQxi5iw2Is0Utw-99" value="+ lokasi varchar" style="text;strokeColor=none;fillColor=none;align=left;verticalAlign=top;spacingLeft=4;spacingRight=4;overflow=hidden;rotatable=0;points=[[0,0.5],[1,0.5]];portConstraint=eastwest;whiteSpace=wrap;html=1;" vertex="1" parent="TFKw6VhQxi5iw2Is0Utw-75">
          <mxGeometry y="182" width="180" height="26" as="geometry" />
        </mxCell>
        <mxCell id="TFKw6VhQxi5iw2Is0Utw-87" value="Penjaga" style="swimlane;fontStyle=0;childLayout=stackLayout;horizontal=1;startSize=26;fillColor=none;horizontalStack=0;resizeParent=1;resizeParentMax=0;resizeLast=0;collapsible=1;marginBottom=0;whiteSpace=wrap;html=1;" vertex="1" parent="1">
          <mxGeometry x="1320" y="-510" width="265" height="156" as="geometry" />
        </mxCell>
        <mxCell id="TFKw6VhQxi5iw2Is0Utw-88" value="+ &lt;u&gt;id&lt;/u&gt;&amp;nbsp;char(8)" style="text;strokeColor=none;fillColor=none;align=left;verticalAlign=top;spacingLeft=4;spacingRight=4;overflow=hidden;rotatable=0;points=[[0,0.5],[1,0.5]];portConstraint=eastwest;whiteSpace=wrap;html=1;" vertex="1" parent="TFKw6VhQxi5iw2Is0Utw-87">
          <mxGeometry y="26" width="265" height="26" as="geometry" />
        </mxCell>
        <mxCell id="TFKw6VhQxi5iw2Is0Utw-89" value="+ nama varchar" style="text;strokeColor=none;fillColor=none;align=left;verticalAlign=top;spacingLeft=4;spacingRight=4;overflow=hidden;rotatable=0;points=[[0,0.5],[1,0.5]];portConstraint=eastwest;whiteSpace=wrap;html=1;" vertex="1" parent="TFKw6VhQxi5iw2Is0Utw-87">
          <mxGeometry y="52" width="265" height="26" as="geometry" />
        </mxCell>
        <mxCell id="TFKw6VhQxi5iw2Is0Utw-91" value="+ alamat varchar" style="text;strokeColor=none;fillColor=none;align=left;verticalAlign=top;spacingLeft=4;spacingRight=4;overflow=hidden;rotatable=0;points=[[0,0.5],[1,0.5]];portConstraint=eastwest;whiteSpace=wrap;html=1;" vertex="1" parent="TFKw6VhQxi5iw2Is0Utw-87">
          <mxGeometry y="78" width="265" height="26" as="geometry" />
        </mxCell>
        <mxCell id="TFKw6VhQxi5iw2Is0Utw-92" value="+ no_telp varchar" style="text;strokeColor=none;fillColor=none;align=left;verticalAlign=top;spacingLeft=4;spacingRight=4;overflow=hidden;rotatable=0;points=[[0,0.5],[1,0.5]];portConstraint=eastwest;whiteSpace=wrap;html=1;" vertex="1" parent="TFKw6VhQxi5iw2Is0Utw-87">
          <mxGeometry y="104" width="265" height="26" as="geometry" />
        </mxCell>
        <mxCell id="TFKw6VhQxi5iw2Is0Utw-93" value="+ jenis_kelamin enum(&#39;laki-laki&#39;, &#39;perempuan&#39;)" style="text;strokeColor=none;fillColor=none;align=left;verticalAlign=top;spacingLeft=4;spacingRight=4;overflow=hidden;rotatable=0;points=[[0,0.5],[1,0.5]];portConstraint=eastwest;whiteSpace=wrap;html=1;" vertex="1" parent="TFKw6VhQxi5iw2Is0Utw-87">
          <mxGeometry y="130" width="265" height="26" as="geometry" />
        </mxCell>
        <mxCell id="TFKw6VhQxi5iw2Is0Utw-94" value="Kategori" style="swimlane;fontStyle=0;childLayout=stackLayout;horizontal=1;startSize=26;fillColor=none;horizontalStack=0;resizeParent=1;resizeParentMax=0;resizeLast=0;collapsible=1;marginBottom=0;whiteSpace=wrap;html=1;" vertex="1" parent="1">
          <mxGeometry x="1320" y="-610" width="180" height="78" as="geometry" />
        </mxCell>
        <mxCell id="TFKw6VhQxi5iw2Is0Utw-95" value="+ &lt;u&gt;id&lt;/u&gt;&amp;nbsp;char(8)" style="text;strokeColor=none;fillColor=none;align=left;verticalAlign=top;spacingLeft=4;spacingRight=4;overflow=hidden;rotatable=0;points=[[0,0.5],[1,0.5]];portConstraint=eastwest;whiteSpace=wrap;html=1;" vertex="1" parent="TFKw6VhQxi5iw2Is0Utw-94">
          <mxGeometry y="26" width="180" height="26" as="geometry" />
        </mxCell>
        <mxCell id="TFKw6VhQxi5iw2Is0Utw-96" value="+ nama varchar" style="text;strokeColor=none;fillColor=none;align=left;verticalAlign=top;spacingLeft=4;spacingRight=4;overflow=hidden;rotatable=0;points=[[0,0.5],[1,0.5]];portConstraint=eastwest;whiteSpace=wrap;html=1;" vertex="1" parent="TFKw6VhQxi5iw2Is0Utw-94">
          <mxGeometry y="52" width="180" height="26" as="geometry" />
        </mxCell>
        <mxCell id="TFKw6VhQxi5iw2Is0Utw-105" style="edgeStyle=orthogonalEdgeStyle;rounded=0;orthogonalLoop=1;jettySize=auto;html=1;" edge="1" parent="1" source="TFKw6VhQxi5iw2Is0Utw-102" target="TFKw6VhQxi5iw2Is0Utw-95">
          <mxGeometry relative="1" as="geometry" />
        </mxCell>
        <mxCell id="TFKw6VhQxi5iw2Is0Utw-107" style="edgeStyle=orthogonalEdgeStyle;rounded=0;orthogonalLoop=1;jettySize=auto;html=1;entryX=0;entryY=0.5;entryDx=0;entryDy=0;" edge="1" parent="1" source="TFKw6VhQxi5iw2Is0Utw-106" target="TFKw6VhQxi5iw2Is0Utw-88">
          <mxGeometry relative="1" as="geometry" />
        </mxCell>
        <mxCell id="TFKw6VhQxi5iw2Is0Utw-108" value="meminjam" style="swimlane;fontStyle=0;childLayout=stackLayout;horizontal=1;startSize=26;fillColor=none;horizontalStack=0;resizeParent=1;resizeParentMax=0;resizeLast=0;collapsible=1;marginBottom=0;whiteSpace=wrap;html=1;" vertex="1" parent="1">
          <mxGeometry x="760" y="-610" width="240" height="156" as="geometry" />
        </mxCell>
        <mxCell id="TFKw6VhQxi5iw2Is0Utw-109" value="+ tanggal_peminjaman DATE" style="text;strokeColor=none;fillColor=none;align=left;verticalAlign=top;spacingLeft=4;spacingRight=4;overflow=hidden;rotatable=0;points=[[0,0.5],[1,0.5]];portConstraint=eastwest;whiteSpace=wrap;html=1;" vertex="1" parent="TFKw6VhQxi5iw2Is0Utw-108">
          <mxGeometry y="26" width="240" height="26" as="geometry" />
        </mxCell>
        <mxCell id="TFKw6VhQxi5iw2Is0Utw-110" value="+ tanggal_pengembalian DATE" style="text;strokeColor=none;fillColor=none;align=left;verticalAlign=top;spacingLeft=4;spacingRight=4;overflow=hidden;rotatable=0;points=[[0,0.5],[1,0.5]];portConstraint=eastwest;whiteSpace=wrap;html=1;" vertex="1" parent="TFKw6VhQxi5iw2Is0Utw-108">
          <mxGeometry y="52" width="240" height="26" as="geometry" />
        </mxCell>
        <mxCell id="TFKw6VhQxi5iw2Is0Utw-111" value="+ denda int" style="text;strokeColor=none;fillColor=none;align=left;verticalAlign=top;spacingLeft=4;spacingRight=4;overflow=hidden;rotatable=0;points=[[0,0.5],[1,0.5]];portConstraint=eastwest;whiteSpace=wrap;html=1;" vertex="1" parent="TFKw6VhQxi5iw2Is0Utw-108">
          <mxGeometry y="78" width="240" height="26" as="geometry" />
        </mxCell>
        <mxCell id="TFKw6VhQxi5iw2Is0Utw-112" value="FK&amp;nbsp;&lt;u&gt;NIS char(8)&lt;/u&gt;" style="text;strokeColor=none;fillColor=none;align=left;verticalAlign=top;spacingLeft=4;spacingRight=4;overflow=hidden;rotatable=0;points=[[0,0.5],[1,0.5]];portConstraint=eastwest;whiteSpace=wrap;html=1;" vertex="1" parent="TFKw6VhQxi5iw2Is0Utw-108">
          <mxGeometry y="104" width="240" height="26" as="geometry" />
        </mxCell>
        <mxCell id="TFKw6VhQxi5iw2Is0Utw-113" value="FK &lt;u&gt;kode_buku&amp;nbsp;char(8)&lt;/u&gt;" style="text;strokeColor=none;fillColor=none;align=left;verticalAlign=top;spacingLeft=4;spacingRight=4;overflow=hidden;rotatable=0;points=[[0,0.5],[1,0.5]];portConstraint=eastwest;whiteSpace=wrap;html=1;" vertex="1" parent="TFKw6VhQxi5iw2Is0Utw-108">
          <mxGeometry y="130" width="240" height="26" as="geometry" />
        </mxCell>
        <mxCell id="TFKw6VhQxi5iw2Is0Utw-114" style="edgeStyle=orthogonalEdgeStyle;rounded=0;orthogonalLoop=1;jettySize=auto;html=1;entryX=1;entryY=0.5;entryDx=0;entryDy=0;" edge="1" parent="1" source="TFKw6VhQxi5iw2Is0Utw-112" target="TFKw6VhQxi5iw2Is0Utw-68">
          <mxGeometry relative="1" as="geometry" />
        </mxCell>
        <mxCell id="TFKw6VhQxi5iw2Is0Utw-115" style="edgeStyle=orthogonalEdgeStyle;rounded=0;orthogonalLoop=1;jettySize=auto;html=1;" edge="1" parent="1" source="TFKw6VhQxi5iw2Is0Utw-113" target="TFKw6VhQxi5iw2Is0Utw-76">
          <mxGeometry relative="1" as="geometry" />
        </mxCell>
      </root>
    </mxGraphModel>
  </diagram>
</mxfile>
